Coordinates
version=1
nRows=9
nColumns=24
inDegrees=yes

Units are S.I. units (second, meters, Newtons, ...)
Angles are in degrees.

endheader
time	pelvis_tilt	pelvis_list	pelvis_rotation	pelvis_tx	pelvis_ty	pelvis_tz	hip_flexion_r	hip_adduction_r	hip_rotation_r	knee_angle_r	ankle_angle_r	subtalar_angle_r	mtp_angle_r	hip_flexion_l	hip_adduction_l	hip_rotation_l	knee_angle_l	ankle_angle_l	subtalar_angle_l	mtp_angle_l	lumbar_extension	lumbar_bending	lumbar_rotation
      0.68300000	      2.19538265	      3.40968040	     10.78636729	      0.06776928	      0.99050734	      0.22516097	     28.29734209	     -5.65638887	     -4.20995744	     -5.50707457	     10.15809604	     -6.34094783	      6.05751756	    -18.03791328	      4.17138197	     13.56089853	    -17.76165396	     18.20023585	     -5.37095449	     -2.31714692	     -5.11437069	     -5.57676874	     -8.55104165
      0.68716667	      2.21653187	      3.28560942	     10.98391310	      0.07401336	      0.98990042	      0.22548767	     28.30043318	     -5.54618788	     -4.07201654	     -6.17804650	     10.11394571	     -6.75793270	      6.08117173	    -18.20048164	      3.88637861	     13.52353872	    -18.13566193	     18.06144349	     -5.15984949	     -2.29582006	     -5.03799268	     -5.43783447	     -8.70932838
      0.69133333	      2.24931935	      3.15401650	     11.18501892	      0.08029788	      0.98933199	      0.22583150	     28.27306212	     -5.41974465	     -3.95392707	     -6.81523783	      9.95520937	     -7.24479144	      6.12513130	    -18.37030152	      3.58916171	     13.49775117	    -18.51550876	     17.88718528	     -5.00267810	     -2.23451629	     -4.98050393	     -5.29820213	     -8.85265734
      0.69550000	      2.27542908	      3.02513396	     11.39314870	      0.08662810	      0.98877975	      0.22618572	     28.25810511	     -5.30071984	     -3.94146517	     -7.48033590	      9.87382941	     -7.54209651	      6.14514902	    -18.52964745	      3.29386210	     13.49840913	    -18.89735972	     17.62930740	     -4.92794743	     -2.20825359	     -4.90810620	     -5.18870756	     -8.90239174
      0.69966667	      2.29918918	      2.86264781	     11.56663031	      0.09307217	      0.98823246	      0.22662341	     28.20363074	     -5.10953762	     -3.78332879	     -8.03012236	      9.46975512	     -8.17620468	      6.21898765	    -18.69059616	      2.96122334	     13.42080685	    -19.25746753	     17.40941162	     -4.71226973	     -2.08504161	     -4.78298642	     -4.99332901	     -9.11852905
      0.70383333	      2.34045749	      2.71519107	     11.75367991	      0.09948722	      0.98771625	      0.22708440	     28.13194569	     -4.93102743	     -3.67763400	     -8.58668985	      9.08918961	     -8.78892029	      6.36051698	    -18.83826919	      2.63214214	     13.31103479	    -19.67877648	     17.19654002	     -4.51697343	     -1.85646349	     -4.72884592	     -4.85744448	     -9.24954014
      0.70800000	      2.36888567	      2.55215983	     11.93571934	      0.10598686	      0.98720767	      0.22755856	     28.08070354	     -4.74030465	     -3.68320622	     -9.14668110	      8.62888398	     -9.25689650	      8.03257980	    -18.97518744	      2.28352355	     13.18612949	    -20.07354253	     16.85200572	     -4.29759019	      0.78527691	     -4.62274497	     -4.71180720	     -9.29920340
      0.71216667	      2.39368638	      2.36486295	     12.09424556	      0.11256684	      0.98671123	      0.22807546	     28.02449976	     -4.50470831	     -3.65131494	     -9.67655175	      8.15209582	     -9.75567039	      8.05388239	    -19.11911590	      1.92404728	     13.09385832	    -20.44517118	     16.49209636	     -4.21503869	      0.83936708	     -4.50133376	     -4.51418393	     -9.44299751
      0.71633333	      2.42591941	      2.17781690	     12.25733195	      0.11915311	      0.98624140	      0.22861623	     27.95119521	     -4.26158378	     -3.62621661	    -10.17279171	      7.55980718	    -10.34305866	      8.11644004	    -19.24038096	      1.55274536	     12.93709215	    -20.86768488	     16.14540654	     -4.03272444	      0.96543915	     -4.38483078	     -4.33169279	     -9.54670372
